<?xml version="1.0" standalone="no"?><svg id="svg" version="1.1" xmlns="http://www.w3.org/2000/svg" width="400" height="49.0625" viewBox="0, 0, 400,49.0625" ><g id="svgg"><path id="path0" d="M0.000 19.853 L 0.000 39.706 0.375 39.626 C 0.581 39.582,1.650 39.303,2.750 39.006 C 5.296 38.318,7.273 37.788,9.583 37.174 C 10.592 36.906,11.829 36.576,12.333 36.439 C 14.393 35.883,15.980 35.460,17.815 34.978 C 18.879 34.699,19.975 34.408,20.250 34.333 C 20.525 34.257,21.462 34.005,22.333 33.774 C 23.204 33.543,24.517 33.192,25.250 32.996 C 28.817 32.040,29.588 31.839,30.917 31.523 C 31.283 31.436,32.596 31.100,33.833 30.777 C 37.053 29.936,45.008 27.967,47.750 27.332 C 48.117 27.248,49.354 26.956,50.500 26.685 C 51.646 26.413,53.333 26.038,54.250 25.851 C 55.167 25.663,56.629 25.356,57.500 25.168 C 58.371 24.980,59.458 24.745,59.917 24.646 C 60.375 24.547,61.012 24.408,61.333 24.337 C 63.291 23.901,67.693 23.034,70.250 22.580 C 71.839 22.299,72.947 22.100,74.375 21.842 C 76.011 21.545,83.245 20.346,84.500 20.163 C 85.188 20.062,86.200 19.914,86.750 19.833 C 87.300 19.753,88.350 19.603,89.083 19.501 C 89.817 19.399,90.642 19.278,90.917 19.233 C 91.192 19.187,91.979 19.079,92.667 18.993 C 93.354 18.906,94.479 18.759,95.167 18.666 C 97.157 18.396,100.422 18.023,102.500 17.828 C 103.554 17.729,105.167 17.575,106.083 17.485 C 107.000 17.395,108.650 17.251,109.750 17.165 C 110.850 17.079,112.725 16.931,113.917 16.836 C 124.375 16.007,141.113 15.925,150.583 16.656 C 151.775 16.748,153.875 16.902,155.250 16.998 C 158.727 17.241,161.637 17.477,163.500 17.667 C 164.371 17.756,166.996 18.020,169.333 18.253 C 171.671 18.486,174.146 18.753,174.833 18.845 C 178.437 19.329,179.863 19.509,182.667 19.833 C 186.045 20.224,193.420 21.217,198.750 22.000 C 199.300 22.081,200.313 22.227,201.000 22.325 C 203.512 22.682,213.556 24.086,215.500 24.352 C 216.188 24.446,217.200 24.587,217.750 24.667 C 219.678 24.945,221.428 25.181,222.667 25.332 C 223.354 25.415,224.779 25.596,225.833 25.734 C 226.887 25.871,229.137 26.142,230.833 26.336 C 232.529 26.529,234.517 26.760,235.250 26.850 C 237.805 27.161,239.427 27.348,240.917 27.502 C 241.742 27.587,243.092 27.729,243.917 27.817 C 247.957 28.248,250.105 28.426,255.000 28.739 C 274.373 29.974,289.494 29.809,308.000 28.162 C 309.054 28.068,310.742 27.918,311.750 27.829 C 315.500 27.496,319.461 27.095,321.417 26.849 C 332.735 25.424,333.640 25.304,338.000 24.641 C 340.290 24.293,341.032 24.177,344.750 23.584 C 351.527 22.505,351.630 22.488,354.333 22.018 C 358.986 21.210,362.222 20.618,365.417 19.990 C 366.333 19.810,367.533 19.581,368.083 19.480 C 368.633 19.380,370.283 19.047,371.750 18.739 C 373.217 18.432,375.054 18.067,375.833 17.927 C 376.613 17.788,377.400 17.641,377.583 17.601 C 377.767 17.561,378.367 17.441,378.917 17.334 C 379.467 17.227,380.217 17.077,380.583 17.000 C 381.372 16.835,381.989 16.711,386.500 15.810 C 388.379 15.434,390.104 15.094,390.333 15.054 C 390.563 15.015,391.050 14.917,391.417 14.838 C 391.783 14.759,392.496 14.612,393.000 14.513 C 393.504 14.414,395.238 14.070,396.853 13.750 C 398.467 13.429,399.836 13.167,399.894 13.167 C 399.952 13.167,400.000 10.204,400.000 6.583 L 400.000 0.000 200.000 0.000 L 0.000 0.000 0.000 19.853 M0.000 48.833 C 0.000 48.944,66.778 49.000,200.000 49.000 C 333.222 49.000,400.000 48.944,400.000 48.833 C 400.000 48.722,333.222 48.667,200.000 48.667 C 66.778 48.667,0.000 48.722,0.000 48.833 " stroke="none" fill="#e9eef3" fill-rule="evenodd"></path><path id="path1" d="M397.167 13.686 C 395.929 13.948,394.467 14.245,393.917 14.346 C 393.367 14.447,392.542 14.604,392.083 14.696 C 391.625 14.788,390.950 14.922,390.583 14.994 C 389.943 15.120,384.062 16.296,382.167 16.676 C 381.662 16.778,380.950 16.923,380.583 17.000 C 380.217 17.077,379.467 17.227,378.917 17.334 C 378.367 17.441,377.767 17.561,377.583 17.601 C 377.400 17.641,376.613 17.788,375.833 17.927 C 375.054 18.067,373.217 18.432,371.750 18.739 C 370.283 19.047,368.633 19.380,368.083 19.480 C 367.533 19.581,366.333 19.810,365.417 19.990 C 360.882 20.880,353.865 22.132,349.583 22.814 C 349.033 22.902,346.858 23.248,344.750 23.584 C 342.642 23.920,340.429 24.269,339.833 24.359 C 339.237 24.450,338.337 24.587,337.833 24.665 C 333.927 25.265,332.648 25.435,321.417 26.849 C 319.461 27.095,315.500 27.496,311.750 27.829 C 310.742 27.918,309.054 28.068,308.000 28.162 C 289.494 29.809,274.373 29.974,255.000 28.739 C 250.105 28.426,247.957 28.248,243.917 27.817 C 243.092 27.729,241.742 27.587,240.917 27.502 C 239.427 27.348,237.805 27.161,235.250 26.850 C 234.517 26.760,232.529 26.529,230.833 26.336 C 229.137 26.142,226.887 25.871,225.833 25.734 C 224.779 25.596,223.354 25.415,222.667 25.332 C 221.428 25.181,219.678 24.945,217.750 24.667 C 217.200 24.587,216.188 24.446,215.500 24.352 C 213.556 24.086,203.512 22.682,201.000 22.325 C 200.313 22.227,199.300 22.081,198.750 22.000 C 193.420 21.217,186.045 20.224,182.667 19.833 C 179.863 19.509,178.437 19.329,174.833 18.845 C 174.146 18.753,171.671 18.486,169.333 18.253 C 166.996 18.020,164.371 17.756,163.500 17.667 C 161.637 17.477,158.727 17.241,155.250 16.998 C 153.875 16.902,151.775 16.748,150.583 16.656 C 141.113 15.925,124.375 16.007,113.917 16.836 C 112.725 16.931,110.850 17.079,109.750 17.165 C 108.650 17.251,107.000 17.395,106.083 17.485 C 105.167 17.575,103.554 17.729,102.500 17.828 C 100.422 18.023,97.157 18.396,95.167 18.666 C 94.479 18.759,93.354 18.906,92.667 18.993 C 91.979 19.079,91.192 19.187,90.917 19.233 C 90.642 19.278,89.817 19.399,89.083 19.501 C 88.350 19.603,87.300 19.753,86.750 19.833 C 86.200 19.914,85.188 20.062,84.500 20.163 C 83.245 20.346,76.011 21.545,74.375 21.842 C 72.947 22.100,71.839 22.299,70.250 22.580 C 67.693 23.034,63.291 23.901,61.333 24.337 C 61.012 24.408,60.375 24.547,59.917 24.646 C 59.458 24.745,58.371 24.980,57.500 25.168 C 56.629 25.356,55.167 25.663,54.250 25.851 C 53.333 26.038,51.646 26.413,50.500 26.685 C 49.354 26.956,48.117 27.248,47.750 27.332 C 45.008 27.967,37.053 29.936,33.833 30.777 C 32.596 31.100,31.283 31.436,30.917 31.523 C 29.588 31.839,28.817 32.040,25.250 32.996 C 24.517 33.192,23.204 33.543,22.333 33.774 C 21.462 34.005,20.525 34.257,20.250 34.333 C 19.975 34.408,18.879 34.699,17.815 34.978 C 15.980 35.460,14.393 35.883,12.333 36.439 C 11.829 36.576,10.592 36.906,9.583 37.174 C 7.273 37.788,5.296 38.318,2.750 39.006 C 1.650 39.303,0.581 39.582,0.375 39.626 L 0.000 39.706 0.000 44.186 L 0.000 48.667 200.000 48.667 L 400.000 48.667 400.000 30.917 C 400.000 14.115,399.984 13.168,399.708 13.188 C 399.548 13.200,398.404 13.424,397.167 13.686 " stroke="none" fill="#d2b48c" fill-rule="evenodd"></path></g></svg>